<?xml version="1.0" encoding="utf-8"?>
<!-- Generator: Adobe Illustrator 22.0.1, SVG Export Plug-In . SVG Version: 6.00 Build 0)  -->
<svg version="1.1" id="Layer_1" xmlns="http://www.w3.org/2000/svg" xmlns:xlink="http://www.w3.org/1999/xlink" x="0px" y="0px"
	 viewBox="0 0 170 170" style="enable-background:new 0 0 170 170;" xml:space="preserve">
<style type="text/css">
	.st0{fill:#0071F9;}
</style>
<path class="st0" d="M85,0C38.1,0,0,38.1,0,85s38.1,85,85,85s85-38.1,85-85S131.9,0,85,0z M84.6,132.5c0,0-3.9,2.6-6.6,2.6
	c-0.2,0.1-0.4,0.2-0.4,0.2l0-0.2c-0.6,0-1.1-0.1-1.7-0.2l-0.9-0.2c-4.7-1.2-7.2-5.8-6-10.5l6.6-26.4l3-11.9
	c2.8-11.1-8.7,2.4-11.1-2.7c-1.6-3.4,8.9-10.5,16.6-15.8c0,0,3.9-2.6,6.6-2.6c0.2-0.1,0.4-0.2,0.4-0.2l0,0.2c0.6,0,1.1,0.1,1.7,0.2
	l0.9,0.2c4.7,1.2,7.6,5.9,6.4,10.6l-6.6,26.4l-3,11.9c-2.7,11.1,8.5-2.4,10.9,2.7C102.9,120.2,92.2,127.2,84.6,132.5z M101.2,49.9
	c-1.6,6.6-8.3,10.6-14.9,9c-6.6-1.6-10.6-8.3-9-14.9c1.6-6.6,8.3-10.6,14.9-9C98.8,36.7,102.8,43.4,101.2,49.9z"/>
</svg>
