<?xml version="1.0" encoding="UTF-8" standalone="no"?>
<!-- Generator: Adobe Illustrator 22.0.1, SVG Export Plug-In . SVG Version: 6.00 Build 0)  -->

<svg
   xmlns:osb="http://www.openswatchbook.org/uri/2009/osb"
   xmlns:dc="http://purl.org/dc/elements/1.1/"
   xmlns:cc="http://creativecommons.org/ns#"
   xmlns:rdf="http://www.w3.org/1999/02/22-rdf-syntax-ns#"
   xmlns:svg="http://www.w3.org/2000/svg"
   xmlns="http://www.w3.org/2000/svg"
   xmlns:sodipodi="http://sodipodi.sourceforge.net/DTD/sodipodi-0.dtd"
   xmlns:inkscape="http://www.inkscape.org/namespaces/inkscape"
   version="1.1"
   id="Layer_1"
   x="0px"
   y="0px"
   viewBox="0 0 370.38144 70"
   xml:space="preserve"
   sodipodi:docname="love.svg"
   width="370.38144"
   height="70"
   inkscape:version="0.92.2 5c3e80d, 2017-08-06"><metadata
     id="metadata23"><rdf:RDF><cc:Work
         rdf:about=""><dc:format>image/svg+xml</dc:format><dc:type
           rdf:resource="http://purl.org/dc/dcmitype/StillImage" /><dc:title></dc:title></cc:Work></rdf:RDF></metadata><defs
     id="defs21"><linearGradient
       id="linearGradient2286"
       osb:paint="solid"><stop
         style="stop-color:#000000;stop-opacity:1;"
         offset="0"
         id="stop2284" /></linearGradient><linearGradient
       id="linearGradient2268"
       osb:paint="solid"><stop
         style="stop-color:#000000;stop-opacity:1;"
         offset="0"
         id="stop2266" /></linearGradient></defs><sodipodi:namedview
     pagecolor="#ffffff"
     bordercolor="#666666"
     borderopacity="1"
     objecttolerance="10"
     gridtolerance="10"
     guidetolerance="10"
     inkscape:pageopacity="0"
     inkscape:pageshadow="2"
     inkscape:window-width="878"
     inkscape:window-height="879"
     id="namedview19"
     showgrid="false"
     inkscape:zoom="0.7"
     inkscape:cx="118.63965"
     inkscape:cy="-133.78034"
     inkscape:window-x="0"
     inkscape:window-y="19"
     inkscape:window-maximized="0"
     inkscape:current-layer="Layer_1"
     inkscape:snap-global="false" /><style
     type="text/css"
     id="style2">
	.st0{fill:#EFC75E;}
	.st1{fill:#E2574C;}
	.st2{fill:#FFFFFF;}
	.st3{fill:#FCF4DF;}
	.st4{fill:#E66E65;}
	.st5{fill:#CB4E44;}
	.st6{fill:#F9DDDB;}
</style><path
     class="st0"
     d="M 54.999999,0 C 74.316036,0 90,15.651917 90,35.020649 90,54.389381 74.316036,70 54.999999,70 35.683962,70 20,54.348082 20,34.979351 20,15.610619 35.642689,0 54.999999,0 Z"
     id="path4"
     inkscape:connector-curvature="0"
     style="fill:#efc75e;stroke-width:0.41285756" /><path
     class="st1"
     d="m 36.509433,22.879056 c 6.645048,-6.731563 13.207548,-3.79941 18.449293,1.032449 5.283018,-4.831859 11.804245,-7.846608 18.490565,-1.032449 5.200475,5.286135 5.241747,13.793511 0,19.079646 -8.791273,8.053097 -13.372641,12.224189 -15.766509,14.412979 -1.485849,1.362832 -3.755896,1.362832 -5.283018,0 -2.435142,-2.18879 -7.057783,-6.359882 -15.890331,-14.412979 -5.241745,-5.286135 -5.200471,-13.793511 0,-19.079646 z"
     id="path6"
     inkscape:connector-curvature="0"
     style="fill:#e2574c;stroke-width:0.41285756" /><path
     class="st2"
     d="m 30.978773,51.581121 c 2.104953,-0.247788 3.260614,-1.40413 3.508255,-3.510325 0.247641,2.106195 1.403302,3.262537 3.508255,3.510325 -2.104953,0.247787 -3.260614,1.40413 -3.508255,3.510324 -0.247641,-2.106194 -1.444576,-3.303835 -3.508255,-3.510324 z m 40.778302,-1.899705 c -0.247642,2.106194 -1.403302,3.262537 -3.508256,3.510324 2.104954,0.247788 3.260614,1.40413 3.508256,3.510325 0.247641,-2.106195 1.403302,-3.262537 3.508254,-3.510325 -2.104952,-0.206489 -3.260613,-1.40413 -3.508254,-3.510324 z M 47.98349,7.020649 c -0.247641,2.106194 -1.403302,3.262537 -3.508255,3.510324 2.104953,0.247789 3.260614,1.40413 3.508255,3.510325 0.247642,-2.106195 1.403302,-3.262536 3.508255,-3.510325 C 49.386792,10.283186 48.231132,9.085546 47.98349,7.020649 Z"
     id="path8"
     inkscape:connector-curvature="0"
     style="fill:#ffffff;stroke-width:0.41285756" /><path
     class="st3"
     d="m 66.886792,23.085546 c 3.797169,-0.41298 5.860848,-2.519174 6.314858,-6.318584 0.412736,3.758112 2.517689,5.864306 6.314856,6.318584 -3.797167,0.412979 -5.860847,2.519174 -6.314856,6.318584 -0.45401,-3.79941 -2.558962,-5.864308 -6.314858,-6.318584 z"
     id="path10"
     inkscape:connector-curvature="0"
     style="fill:#fcf4df;stroke-width:0.41285756" /><path
     class="st4"
     d="m 37.5,31.964602 c 0,-4.501476 3.673349,-8.176991 8.172169,-8.176991 0.495283,0 0.908019,0.412979 0.908019,0.908554 0,0.495575 -0.412736,0.908555 -0.908019,0.908555 -3.508254,0 -6.356132,2.849557 -6.356132,6.359882 0,0.495575 -0.412735,0.908555 -0.908018,0.908555 C 37.912736,32.914457 37.5,32.501474 37.5,31.964602 Z"
     id="path12"
     inkscape:connector-curvature="0"
     style="fill:#e66e65;stroke-width:0.41285756" /><path
     class="st5"
     d="M 53.885612,55.00885 C 51.450471,52.820059 46.827829,48.648967 37.995283,40.59587 l -0.04128,-0.04129 -0.742925,-0.702066 c -3.466981,-3.469026 -4.581368,-8.342182 -3.508254,-12.802359 -2.104953,4.914453 -1.196934,10.861356 2.806603,14.867256 8.832547,8.053097 13.455188,12.265487 15.89033,14.412979 1.527122,1.362832 3.79717,1.362832 5.283019,0 l 1.279481,-1.156342 c -1.527123,1.19764 -3.632076,1.156342 -5.076652,-0.165192 z"
     id="path14"
     inkscape:connector-curvature="0"
     style="fill:#cb4e44;stroke-width:0.41285756" /><path
     class="st6"
     d="m 75.100234,24.943953 c -0.495282,-0.743363 -1.031838,-1.445428 -1.692216,-2.064897 -0.701652,-0.702065 -1.362028,-1.280236 -2.06368,-1.775811 -1.073112,1.115044 -2.558962,1.817109 -4.49882,2.023598 3.79717,0.412979 5.860848,2.519174 6.314859,6.318585 0.206367,-1.982302 0.866744,-3.427729 1.939857,-4.501475 z"
     id="path16"
     inkscape:connector-curvature="0"
     style="fill:#f9dddb;stroke-width:0.41285756" /><text
     xml:space="preserve"
     style="font-style:normal;font-variant:normal;font-weight:normal;font-stretch:normal;font-size:48px;line-height:1.25;font-family:'Serto Batnan';-inkscape-font-specification:'Serto Batnan, Normal';font-variant-ligatures:normal;font-variant-caps:normal;font-variant-numeric:normal;font-feature-settings:normal;text-align:start;letter-spacing:0px;word-spacing:0px;writing-mode:lr-tb;text-anchor:start;fill:#ffffff;fill-opacity:1;fill-rule:evenodd;stroke:#000000;stroke-width:1;stroke-linejoin:miter;stroke-miterlimit:4;stroke-dasharray:none;stroke-dashoffset:0;stroke-opacity:1;image-rendering:auto"
     x="115.20169"
     y="45.015705"
     id="text3716"
     transform="scale(0.90671573,1.1028815)"><tspan
       sodipodi:role="line"
       id="tspan3714"
       x="115.20169"
       y="45.015705"
       style="font-style:normal;font-variant:normal;font-weight:normal;font-stretch:normal;font-size:48px;font-family:'Serto Batnan';-inkscape-font-specification:'Serto Batnan, Normal';font-variant-ligatures:normal;font-variant-caps:normal;font-variant-numeric:normal;font-feature-settings:normal;text-align:start;writing-mode:lr-tb;text-anchor:start;fill:#4d4d4d;fill-opacity:1;fill-rule:evenodd;stroke:none;stroke-width:1;stroke-linecap:round;stroke-linejoin:miter;stroke-miterlimit:4;stroke-dasharray:none;stroke-dashoffset:0;stroke-opacity:1;paint-order:fill markers stroke">Love Meter</tspan></text>
<flowRoot
     xml:space="preserve"
     id="flowRoot2932"
     style="font-style:normal;font-weight:normal;font-size:40px;line-height:1.25;font-family:sans-serif;letter-spacing:0px;word-spacing:0px;fill:#000000;fill-opacity:1;stroke:none"
     transform="translate(-18.008474,-20)"><flowRegion
       id="flowRegion2934"><rect
         id="rect2936"
         width="180.08475"
         height="74.194916"
         x="125.33898"
         y="19.40678" /></flowRegion><flowPara
       id="flowPara2938" /></flowRoot></svg>