<?xml version="1.0" encoding="UTF-8" standalone="no"?>
<!-- Generator: Adobe Illustrator 22.0.1, SVG Export Plug-In . SVG Version: 6.00 Build 0)  -->

<svg
   xmlns:osb="http://www.openswatchbook.org/uri/2009/osb"
   xmlns:dc="http://purl.org/dc/elements/1.1/"
   xmlns:cc="http://creativecommons.org/ns#"
   xmlns:rdf="http://www.w3.org/1999/02/22-rdf-syntax-ns#"
   xmlns:svg="http://www.w3.org/2000/svg"
   xmlns="http://www.w3.org/2000/svg"
   xmlns:sodipodi="http://sodipodi.sourceforge.net/DTD/sodipodi-0.dtd"
   xmlns:inkscape="http://www.inkscape.org/namespaces/inkscape"
   version="1.1"
   id="Layer_1"
   x="0px"
   y="0px"
   viewBox="0 0 370.38144 70"
   xml:space="preserve"
   sodipodi:docname="heroes.svg"
   width="370.38144"
   height="70"
   inkscape:version="0.92.2 5c3e80d, 2017-08-06"><metadata
     id="metadata23"><rdf:RDF><cc:Work
         rdf:about=""><dc:format>image/svg+xml</dc:format><dc:type
           rdf:resource="http://purl.org/dc/dcmitype/StillImage" /><dc:title></dc:title></cc:Work></rdf:RDF></metadata><defs
     id="defs21"><linearGradient
       id="linearGradient2286"
       osb:paint="solid"><stop
         style="stop-color:#000000;stop-opacity:1;"
         offset="0"
         id="stop2284" /></linearGradient><linearGradient
       id="linearGradient2268"
       osb:paint="solid"><stop
         style="stop-color:#000000;stop-opacity:1;"
         offset="0"
         id="stop2266" /></linearGradient></defs><sodipodi:namedview
     pagecolor="#ffffff"
     bordercolor="#666666"
     borderopacity="1"
     objecttolerance="10"
     gridtolerance="10"
     guidetolerance="10"
     inkscape:pageopacity="0"
     inkscape:pageshadow="2"
     inkscape:window-width="878"
     inkscape:window-height="879"
     id="namedview19"
     showgrid="false"
     inkscape:zoom="0.7"
     inkscape:cx="118.63965"
     inkscape:cy="-133.78034"
     inkscape:window-x="0"
     inkscape:window-y="19"
     inkscape:window-maximized="0"
     inkscape:current-layer="Layer_1"
     inkscape:snap-global="false" /><style
     type="text/css"
     id="style2">
	.st0{fill:#EFC75E;}
	.st1{fill:#E2574C;}
	.st2{fill:#FFFFFF;}
	.st3{fill:#FCF4DF;}
	.st4{fill:#E66E65;}
	.st5{fill:#CB4E44;}
	.st6{fill:#F9DDDB;}
</style><text
     xml:space="preserve"
     style="font-style:normal;font-variant:normal;font-weight:normal;font-stretch:normal;font-size:48px;line-height:1.25;font-family:'Serto Batnan';-inkscape-font-specification:'Serto Batnan, Normal';font-variant-ligatures:normal;font-variant-caps:normal;font-variant-numeric:normal;font-feature-settings:normal;text-align:start;letter-spacing:0px;word-spacing:0px;writing-mode:lr-tb;text-anchor:start;fill:#ffffff;fill-opacity:1;fill-rule:evenodd;stroke:#000000;stroke-width:1;stroke-linejoin:miter;stroke-miterlimit:4;stroke-dasharray:none;stroke-dashoffset:0;stroke-opacity:1;image-rendering:auto"
     x="115.20169"
     y="45.015705"
     id="text3716"
     transform="scale(0.90671573,1.1028815)"><tspan
       sodipodi:role="line"
       id="tspan3714"
       x="115.20169"
       y="45.015705"
       style="font-style:normal;font-variant:normal;font-weight:normal;font-stretch:normal;font-size:48px;font-family:'Serto Batnan';-inkscape-font-specification:'Serto Batnan, Normal';font-variant-ligatures:normal;font-variant-caps:normal;font-variant-numeric:normal;font-feature-settings:normal;text-align:start;writing-mode:lr-tb;text-anchor:start;fill:#4d4d4d;fill-opacity:1;fill-rule:evenodd;stroke:none;stroke-width:1;stroke-linecap:round;stroke-linejoin:miter;stroke-miterlimit:4;stroke-dasharray:none;stroke-dashoffset:0;stroke-opacity:1;paint-order:fill markers stroke">Superhero</tspan></text>
<flowRoot
     xml:space="preserve"
     id="flowRoot2932"
     style="font-style:normal;font-weight:normal;font-size:40px;line-height:1.25;font-family:sans-serif;letter-spacing:0px;word-spacing:0px;fill:#000000;fill-opacity:1;stroke:none"
     transform="translate(-18.008474,-20)"><flowRegion
       id="flowRegion2934"><rect
         id="rect2936"
         width="180.08475"
         height="74.194916"
         x="125.33898"
         y="19.40678" /></flowRegion><flowPara
       id="flowPara2938" /></flowRoot><path
     class="st0"
     d="m 54.999996,0 c 19.31604,0 35,15.65192 35,35.02065 0,19.36873 -15.68396,34.97935 -35,34.97935 C 35.683966,70 20,54.34808 20,34.97935 20,15.61062 35.642686,0 54.999996,0 Z"
     id="path5972"
     inkscape:connector-curvature="0"
     style="fill:#efc75e;stroke-width:0.41285759" /><g
     id="Icons"
     transform="matrix(0.41273584,0,0,0.41297935,19.793632,-0.20649)"><g
       id="g6000"><path
         class="st1"
         d="m 86,36 c 0,0 -15.5,-0.3 -26.3,3.3 L 53.8,25.9 49,98.3 48,121.2 c -0.1,2.5 0.9,5 2.8,6.7 l 19.7,18.1 30.7,0.7 21,-21.3 c 1.7,-1.7 2.6,-4.1 2.4,-6.5 L 118.9,26 112.1,39.3 C 112.1,39.1 92.4,35.7 86,36 Z"
         id="path5974"
         inkscape:connector-curvature="0"
         style="fill:#464747" /><polygon
         class="st2"
         points="59.3,78.5 79.1,85.9 62.3,85.9 "
         id="polygon5976"
         style="fill:#ffffff" /><polygon
         class="st2"
         points="112.7,78.5 92.9,85.9 109.7,85.9 "
         id="polygon5978"
         style="fill:#ffffff" /><polygon
         class="st3"
         points="115.1,124 97.9,140.6 87.3,140.4 84.8,140.4 73.5,140.2 56,123.5 58,100.1 55.4,94.3 85.7,103.3 116.1,94.3 113.1,100.2 "
         id="polygon5980"
         style="fill:#f9d9c0" /><g
         id="g5984"><path
           class="st4"
           d="m 87.2,96.3 -0.1,6.5 -1.3,0.4 -1.2,-0.3 0.1,-6.6 c 0,-0.7 0.6,-1.2 1.2,-1.2 0,0 0,0 0,0 0.7,0 1.3,0.5 1.3,1.2 z"
           id="path5982"
           inkscape:connector-curvature="0"
           style="fill:#333333" /></g><g
         id="g5998"><g
           id="g5988"><path
             class="st5"
             d="m 98.6,116.3 c -0.3,0 -0.6,-0.1 -0.8,-0.3 l -1.9,-1.6 -20.3,-0.5 -1.7,1.5 c -0.5,0.5 -1.3,0.4 -1.8,-0.1 -0.5,-0.5 -0.4,-1.3 0.1,-1.8 l 2.1,-1.8 c 0.2,-0.2 0.6,-0.3 0.9,-0.3 l 21.2,0.5 c 0.3,0 0.6,0.1 0.8,0.3 l 2.2,1.9 c 0.5,0.5 0.6,1.3 0.1,1.8 -0.2,0.3 -0.5,0.4 -0.9,0.4 z"
             id="path5986"
             inkscape:connector-curvature="0"
             style="fill:#d6b6a1" /></g><g
           id="g5992"><path
             class="st5"
             d="m 90.3,120.6 c 0,0 0,0 0,0 L 81,120.2 c -0.7,0 -1.2,-0.6 -1.2,-1.3 0,-0.7 0.7,-1.2 1.3,-1.2 l 9.2,0.4 c 0.7,0 1.2,0.6 1.2,1.3 0.1,0.6 -0.5,1.2 -1.2,1.2 z"
             id="path5990"
             inkscape:connector-curvature="0"
             style="fill:#d6b6a1" /></g><g
           id="g5996"><path
             class="st5"
             d="m 87.5,131.4 -0.2,9 h -2.5 l 0.2,-9.1 c 0.1,-0.7 0.6,-1.3 1.3,-1.2 0.8,0 1.3,0.6 1.2,1.3 z"
             id="path5994"
             inkscape:connector-curvature="0"
             style="fill:#d6b6a1" /></g></g></g></g><path
     class="st2"
     d="m 30.978776,51.58112 c 2.10495,-0.24779 3.26061,-1.40413 3.50825,-3.51032 0.24764,2.10619 1.4033,3.26253 3.50826,3.51032 -2.10496,0.24779 -3.26062,1.40413 -3.50826,3.51033 -0.24764,-2.1062 -1.44457,-3.30384 -3.50825,-3.51033 z m 40.7783,-1.8997 c -0.24764,2.10619 -1.4033,3.26253 -3.50825,3.51032 2.10495,0.24779 3.26061,1.40413 3.50825,3.51032 0.24764,-2.10619 1.4033,-3.26253 3.50825,-3.51032 -2.10495,-0.20649 -3.26061,-1.40413 -3.50825,-3.51032 z M 47.983486,7.02065 c -0.24764,2.10619 -1.4033,3.26254 -3.50825,3.51032 2.10495,0.24779 3.26061,1.40413 3.50825,3.51033 0.24765,-2.1062 1.40331,-3.26254 3.50826,-3.51033 -2.10495,-0.24778 -3.26061,-1.44542 -3.50826,-3.51032 z"
     id="path6003"
     inkscape:connector-curvature="0"
     style="fill:#ffffff;stroke-width:0.41285759" /><path
     class="st6"
     d="m 66.886796,23.08555 c 3.79717,-0.41298 5.86084,-2.51918 6.31485,-6.31859 0.41274,3.75811 2.51769,5.86431 6.31486,6.31859 -3.79717,0.41298 -5.86085,2.51917 -6.31486,6.31858 -0.45401,-3.79941 -2.55896,-5.86431 -6.31485,-6.31858 z"
     id="path6005"
     inkscape:connector-curvature="0"
     style="fill:#fcf4df;stroke-width:0.41285759" /><path
     class="st7"
     d="m 75.100236,24.94395 c -0.49528,-0.74336 -1.03184,-1.44542 -1.69222,-2.06489 -0.70165,-0.70207 -1.36203,-1.28024 -2.06368,-1.77582 -1.07311,1.11505 -2.55896,1.81711 -4.49882,2.0236 3.79717,0.41298 5.86085,2.51918 6.31486,6.31859 0.20637,-1.9823 0.86675,-3.42773 1.93986,-4.50148 z"
     id="path6007"
     inkscape:connector-curvature="0"
     style="fill:#f9dddb;stroke-width:0.41285759" /><flowRoot
     xml:space="preserve"
     id="flowRoot6628"
     style="fill:black;fill-opacity:1;stroke:none;font-family:sans-serif;font-style:normal;font-weight:normal;font-size:40px;line-height:1.25;letter-spacing:0px;word-spacing:0px"><flowRegion
       id="flowRegion6630"><rect
         id="rect6632"
         width="104.28571"
         height="187.14285"
         x="1.4285715"
         y="-41.42857" /></flowRegion><flowPara
       id="flowPara6634"></flowPara></flowRoot></svg>