<?xml version="1.0" encoding="utf-8"?>
<!-- Generator: Adobe Illustrator 22.0.1, SVG Export Plug-In . SVG Version: 6.00 Build 0)  -->
<svg version="1.1" id="Layer_1" xmlns="http://www.w3.org/2000/svg" xmlns:xlink="http://www.w3.org/1999/xlink" x="0px" y="0px"
	 viewBox="0 0 170 170" style="enable-background:new 0 0 170 170;" xml:space="preserve">
<style type="text/css">
	.st0{fill:#EFC75E;}
	.st1{fill:#464747;}
	.st2{fill:#FFFFFF;}
	.st3{fill:#F9D9C0;}
	.st4{fill:#333333;}
	.st5{fill:#D6B6A1;}
	.st6{fill:#FCF4DF;}
	.st7{fill:#F9DDDB;}
</style>
<path class="st0" d="M85.3,0.5c46.8,0,84.8,37.9,84.8,84.8S132.1,170,85.3,170c-46.8,0-84.8-37.9-84.8-84.8S38.4,0.5,85.3,0.5z"/>
<g id="Icons">
	<g>
		<path class="st1" d="M86,36c0,0-15.5-0.3-26.3,3.3l-5.9-13.4l-4.8,72.4l-1,22.9c-0.1,2.5,0.9,5,2.8,6.7L70.5,146l30.7,0.7l21-21.3
			c1.7-1.7,2.6-4.1,2.4-6.5l-5.7-92.9l-6.8,13.3C112.1,39.1,92.4,35.7,86,36z"/>
		<polygon class="st2" points="59.3,78.5 79.1,85.9 62.3,85.9 		"/>
		<polygon class="st2" points="112.7,78.5 92.9,85.9 109.7,85.9 		"/>
		<polygon class="st3" points="113.1,100.2 115.1,124 97.9,140.6 87.3,140.4 84.8,140.4 73.5,140.2 56,123.5 58,100.1 55.4,94.3 
			85.7,103.3 116.1,94.3 		"/>
		<g>
			<path class="st4" d="M87.2,96.3l-0.1,6.5l-1.3,0.4l-1.2-0.3l0.1-6.6c0-0.7,0.6-1.2,1.2-1.2c0,0,0,0,0,0
				C86.6,95.1,87.2,95.6,87.2,96.3z"/>
		</g>
		<g>
			<g>
				<path class="st5" d="M98.6,116.3c-0.3,0-0.6-0.1-0.8-0.3l-1.9-1.6l-20.3-0.5l-1.7,1.5c-0.5,0.5-1.3,0.4-1.8-0.1
					c-0.5-0.5-0.4-1.3,0.1-1.8l2.1-1.8c0.2-0.2,0.6-0.3,0.9-0.3l21.2,0.5c0.3,0,0.6,0.1,0.8,0.3l2.2,1.9c0.5,0.5,0.6,1.3,0.1,1.8
					C99.3,116.2,99,116.3,98.6,116.3z"/>
			</g>
			<g>
				<path class="st5" d="M90.3,120.6C90.3,120.6,90.3,120.6,90.3,120.6l-9.3-0.4c-0.7,0-1.2-0.6-1.2-1.3c0-0.7,0.7-1.2,1.3-1.2
					l9.2,0.4c0.7,0,1.2,0.6,1.2,1.3C91.6,120,91,120.6,90.3,120.6z"/>
			</g>
			<g>
				<path class="st5" d="M87.5,131.4l-0.2,9l-2.5,0l0.2-9.1c0.1-0.7,0.6-1.3,1.3-1.2C87.1,130.1,87.6,130.7,87.5,131.4z"/>
			</g>
		</g>
	</g>
</g>
<path class="st2" d="M27.1,125.4c5.1-0.6,7.9-3.4,8.5-8.5c0.6,5.1,3.4,7.9,8.5,8.5c-5.1,0.6-7.9,3.4-8.5,8.5
	C35,128.8,32.1,125.9,27.1,125.4z M125.9,120.8c-0.6,5.1-3.4,7.9-8.5,8.5c5.1,0.6,7.9,3.4,8.5,8.5c0.6-5.1,3.4-7.9,8.5-8.5
	C129.3,128.8,126.5,125.9,125.9,120.8z M68.3,17.5c-0.6,5.1-3.4,7.9-8.5,8.5c5.1,0.6,7.9,3.4,8.5,8.5c0.6-5.1,3.4-7.9,8.5-8.5
	C71.7,25.4,68.9,22.5,68.3,17.5z"/>
<path class="st6" d="M114.1,56.4c9.2-1,14.2-6.1,15.3-15.3c1,9.1,6.1,14.2,15.3,15.3c-9.2,1-14.2,6.1-15.3,15.3
	C128.3,62.5,123.2,57.5,114.1,56.4z"/>
<path class="st7" d="M134,60.9c-1.2-1.8-2.5-3.5-4.1-5c-1.7-1.7-3.3-3.1-5-4.3c-2.6,2.7-6.2,4.4-10.9,4.9c9.2,1,14.2,6.1,15.3,15.3
	C129.8,67,131.4,63.5,134,60.9z"/>
</svg>
