<?xml version="1.0" encoding="utf-8"?>
<!-- Generator: Adobe Illustrator 22.0.1, SVG Export Plug-In . SVG Version: 6.00 Build 0)  -->
<svg version="1.1" id="Layer_1" xmlns="http://www.w3.org/2000/svg" xmlns:xlink="http://www.w3.org/1999/xlink" x="0px" y="0px"
	 viewBox="0 0 170 170" style="enable-background:new 0 0 170 170;" xml:space="preserve">
<style type="text/css">
	.st0{fill:#EFC75E;}
	.st1{fill:#E2574C;}
	.st2{fill:#FFFFFF;}
	.st3{fill:#FCF4DF;}
	.st4{fill:#E66E65;}
	.st5{fill:#CB4E44;}
	.st6{fill:#F9DDDB;}
</style>
<path class="st0" d="M85.3,0.5c46.8,0,84.8,37.9,84.8,84.8S132.1,170,85.3,170c-46.8,0-84.8-37.9-84.8-84.8S38.4,0.5,85.3,0.5z"/>
<path class="st1" d="M40.5,55.9c16.1-16.3,32-9.2,44.7,2.5C98,46.7,113.8,39.4,130,55.9c12.6,12.8,12.7,33.4,0,46.2
	c-21.3,19.5-32.4,29.6-38.2,34.9c-3.6,3.3-9.1,3.3-12.8,0c-5.9-5.3-17.1-15.4-38.5-34.9C27.8,89.3,27.9,68.7,40.5,55.9z"/>
<path class="st2" d="M27.1,125.4c5.1-0.6,7.9-3.4,8.5-8.5c0.6,5.1,3.4,7.9,8.5,8.5c-5.1,0.6-7.9,3.4-8.5,8.5
	C35,128.8,32.1,125.9,27.1,125.4z M125.9,120.8c-0.6,5.1-3.4,7.9-8.5,8.5c5.1,0.6,7.9,3.4,8.5,8.5c0.6-5.1,3.4-7.9,8.5-8.5
	C129.3,128.8,126.5,125.9,125.9,120.8z M68.3,17.5c-0.6,5.1-3.4,7.9-8.5,8.5c5.1,0.6,7.9,3.4,8.5,8.5c0.6-5.1,3.4-7.9,8.5-8.5
	C71.7,25.4,68.9,22.5,68.3,17.5z"/>
<path class="st3" d="M114.1,56.4c9.2-1,14.2-6.1,15.3-15.3c1,9.1,6.1,14.2,15.3,15.3c-9.2,1-14.2,6.1-15.3,15.3
	C128.3,62.5,123.2,57.5,114.1,56.4z"/>
<path class="st4" d="M42.9,77.9c0-10.9,8.9-19.8,19.8-19.8c1.2,0,2.2,1,2.2,2.2c0,1.2-1,2.2-2.2,2.2c-8.5,0-15.4,6.9-15.4,15.4
	c0,1.2-1,2.2-2.2,2.2C43.9,80.2,42.9,79.2,42.9,77.9z"/>
<path class="st5" d="M82.6,133.7c-5.9-5.3-17.1-15.4-38.5-34.9l-0.1-0.1L42.2,97c-8.4-8.4-11.1-20.2-8.5-31
	c-5.1,11.9-2.9,26.3,6.8,36c21.4,19.5,32.6,29.7,38.5,34.9c3.7,3.3,9.2,3.3,12.8,0l3.1-2.8C91.2,137,86.1,136.9,82.6,133.7z"/>
<path class="st6" d="M134,60.9c-1.2-1.8-2.5-3.5-4.1-5c-1.7-1.7-3.3-3.1-5-4.3c-2.6,2.7-6.2,4.4-10.9,4.9c9.2,1,14.2,6.1,15.3,15.3
	C129.8,67,131.4,63.5,134,60.9z"/>
</svg>
