<?xml version="1.0" encoding="UTF-8" standalone="no"?>
<!-- Generator: Adobe Illustrator 22.0.1, SVG Export Plug-In . SVG Version: 6.00 Build 0)  -->

<svg
   xmlns:osb="http://www.openswatchbook.org/uri/2009/osb"
   xmlns:dc="http://purl.org/dc/elements/1.1/"
   xmlns:cc="http://creativecommons.org/ns#"
   xmlns:rdf="http://www.w3.org/1999/02/22-rdf-syntax-ns#"
   xmlns:svg="http://www.w3.org/2000/svg"
   xmlns="http://www.w3.org/2000/svg"
   xmlns:sodipodi="http://sodipodi.sourceforge.net/DTD/sodipodi-0.dtd"
   xmlns:inkscape="http://www.inkscape.org/namespaces/inkscape"
   version="1.1"
   id="Layer_1"
   x="0px"
   y="0px"
   viewBox="0 0 370.38144 70"
   xml:space="preserve"
   sodipodi:docname="versus.svg"
   width="370.38144"
   height="70"
   inkscape:version="0.92.2 5c3e80d, 2017-08-06"><metadata
     id="metadata23"><rdf:RDF><cc:Work
         rdf:about=""><dc:format>image/svg+xml</dc:format><dc:type
           rdf:resource="http://purl.org/dc/dcmitype/StillImage" /><dc:title></dc:title></cc:Work></rdf:RDF></metadata><defs
     id="defs21"><linearGradient
       id="linearGradient2286"
       osb:paint="solid"><stop
         style="stop-color:#000000;stop-opacity:1;"
         offset="0"
         id="stop2284" /></linearGradient><linearGradient
       id="linearGradient2268"
       osb:paint="solid"><stop
         style="stop-color:#000000;stop-opacity:1;"
         offset="0"
         id="stop2266" /></linearGradient></defs><sodipodi:namedview
     pagecolor="#ffffff"
     bordercolor="#666666"
     borderopacity="1"
     objecttolerance="10"
     gridtolerance="10"
     guidetolerance="10"
     inkscape:pageopacity="0"
     inkscape:pageshadow="2"
     inkscape:window-width="878"
     inkscape:window-height="879"
     id="namedview19"
     showgrid="false"
     inkscape:zoom="0.7"
     inkscape:cx="118.63965"
     inkscape:cy="-133.78034"
     inkscape:window-x="0"
     inkscape:window-y="19"
     inkscape:window-maximized="0"
     inkscape:current-layer="Layer_1"
     inkscape:snap-global="false" /><style
     type="text/css"
     id="style2">
	.st0{fill:#EFC75E;}
	.st1{fill:#E2574C;}
	.st2{fill:#FFFFFF;}
	.st3{fill:#FCF4DF;}
	.st4{fill:#E66E65;}
	.st5{fill:#CB4E44;}
	.st6{fill:#F9DDDB;}
</style><text
     xml:space="preserve"
     style="font-style:normal;font-variant:normal;font-weight:normal;font-stretch:normal;font-size:48px;line-height:1.25;font-family:'Serto Batnan';-inkscape-font-specification:'Serto Batnan, Normal';font-variant-ligatures:normal;font-variant-caps:normal;font-variant-numeric:normal;font-feature-settings:normal;text-align:start;letter-spacing:0px;word-spacing:0px;writing-mode:lr-tb;text-anchor:start;fill:#ffffff;fill-opacity:1;fill-rule:evenodd;stroke:#000000;stroke-width:1;stroke-linejoin:miter;stroke-miterlimit:4;stroke-dasharray:none;stroke-dashoffset:0;stroke-opacity:1;image-rendering:auto"
     x="115.20169"
     y="45.015705"
     id="text3716"
     transform="scale(0.90671573,1.1028815)"><tspan
       sodipodi:role="line"
       id="tspan3714"
       x="115.20169"
       y="45.015705"
       style="font-style:normal;font-variant:normal;font-weight:normal;font-stretch:normal;font-size:48px;font-family:'Serto Batnan';-inkscape-font-specification:'Serto Batnan, Normal';font-variant-ligatures:normal;font-variant-caps:normal;font-variant-numeric:normal;font-feature-settings:normal;text-align:start;writing-mode:lr-tb;text-anchor:start;fill:#4d4d4d;fill-opacity:1;fill-rule:evenodd;stroke:none;stroke-width:1;stroke-linecap:round;stroke-linejoin:miter;stroke-miterlimit:4;stroke-dasharray:none;stroke-dashoffset:0;stroke-opacity:1;paint-order:fill markers stroke">Versus</tspan></text>
<flowRoot
     xml:space="preserve"
     id="flowRoot2932"
     style="font-style:normal;font-weight:normal;font-size:40px;line-height:1.25;font-family:sans-serif;letter-spacing:0px;word-spacing:0px;fill:#000000;fill-opacity:1;stroke:none"
     transform="translate(-18.008474,-20)"><flowRegion
       id="flowRegion2934"><rect
         id="rect2936"
         width="180.08475"
         height="74.194916"
         x="125.33898"
         y="19.40678" /></flowRegion><flowPara
       id="flowPara2938" /></flowRoot><path
     class="st0"
     d="M 55,0 C 74.316037,0 90,15.64269 90,35 90,54.35731 74.357311,70 55,70 35.683963,70 20,54.35731 20,35 20,15.64269 35.683963,0 55,0 Z"
     id="path7279"
     inkscape:connector-curvature="0"
     style="fill:#efc75e;stroke-width:0.41273585" /><g
     id="g7335"
     transform="matrix(0.41273585,0,0,0.41273585,19.917453,-0.12383)"><g
       id="g7283"><path
         class="st1"
         d="M 102.5,36 H 71 C 58,36 47.4,46.6 47.4,59.6 v 11.9 l -5.1,5.1 c -4.7,4.7 -4.7,12.4 0,17.1 L 53,104.4 c 0.1,0.1 0.2,0.2 0.3,0.2 3,3.5 7,6 11.6,7.3 -0.3,0.6 -0.5,1.2 -0.5,1.9 v 17.4 c 0,2.1 1.7,3.8 3.8,3.8 h 39.3 c 2.1,0 3.8,-1.7 3.8,-3.8 v -17.4 c 0,-0.9 -0.3,-1.8 -0.9,-2.4 9.2,-3.2 15.9,-12 15.9,-22.3 V 59.6 C 126.2,46.5 115.6,36 102.5,36 Z"
         id="path7281"
         inkscape:connector-curvature="0"
         style="fill:#ff1a1a" /></g><g
       id="g7287"><path
         class="st2"
         d="M 102.5,45.3 H 71 c -13,0 -23.6,10.6 -23.6,23.6 v 2.6 9.3 l -5.1,5.1 c -1.2,1.2 -2,2.5 -2.6,3.9 0.6,1.4 1.5,2.7 2.6,3.9 L 53,104.4 c 0.1,0.1 0.2,0.2 0.3,0.2 3,3.5 7,6 11.6,7.3 -0.3,0.6 -0.5,1.2 -0.5,1.9 v 7.2 c 0.2,0.1 0.4,0.1 0.5,0.2 -0.3,0.6 -0.5,1.2 -0.5,1.9 v 8.1 c 0,2.1 1.7,3.8 3.8,3.8 h 39.3 c 2.1,0 3.8,-1.7 3.8,-3.8 v -8.1 c 0,-0.9 -0.3,-1.8 -0.9,-2.4 0.3,-0.1 0.6,-0.2 0.9,-0.4 v -6.6 c 0,-0.9 -0.3,-1.8 -0.9,-2.4 9.2,-3.2 15.9,-12 15.9,-22.3 V 68.9 c -0.1,-13 -10.7,-23.6 -23.8,-23.6 z"
         id="path7285"
         inkscape:connector-curvature="0"
         style="fill:#d60909" /></g><g
       id="g7291"><path
         class="st3"
         d="M 107.4,136.3 H 68.1 c -2.7,0 -5,-2.2 -5,-5 v -17.4 c 0,-0.4 0,-0.8 0.1,-1.2 -4.2,-1.4 -7.9,-3.8 -10.8,-7.2 v 0 c -0.1,-0.1 -0.1,-0.1 -0.2,-0.2 L 41.5,94.6 c -2.5,-2.5 -3.9,-5.9 -3.9,-9.4 0,-3.6 1.4,-6.9 3.9,-9.4 l 4.7,-4.7 V 59.6 C 46.2,45.9 57.3,34.8 71,34.8 h 31.5 c 13.7,0 24.8,11.1 24.8,24.8 v 29.5 c 0,10.1 -6.1,19.1 -15.3,22.9 0.2,0.6 0.3,1.2 0.3,1.8 v 17.4 c 0.1,2.8 -2.1,5.1 -4.9,5.1 z M 71,37.2 c -12.4,0 -22.4,10.1 -22.4,22.4 v 11.9 c 0,0.3 -0.1,0.6 -0.4,0.8 l -5.1,5.1 c -2.1,2.1 -3.2,4.8 -3.2,7.7 0,2.9 1.1,5.6 3.2,7.7 l 10.7,10.7 c 0,0 0.1,0.1 0.1,0.1 0.1,0 0.1,0.1 0.2,0.1 0,0 0.1,0.1 0.1,0.1 2.9,3.3 6.7,5.7 11,6.9 0.4,0.1 0.7,0.4 0.8,0.7 0.1,0.3 0.1,0.7 -0.1,1.1 -0.2,0.4 -0.4,0.9 -0.4,1.3 v 17.4 c 0,1.4 1.2,2.6 2.6,2.6 h 39.3 c 1.4,0 2.6,-1.2 2.6,-2.6 v -17.4 c 0,-0.7 -0.3,-1.3 -0.6,-1.6 -0.3,-0.3 -0.3,-0.7 -0.2,-1.1 0.1,-0.4 0.4,-0.7 0.8,-0.8 9,-3.1 15.1,-11.6 15.1,-21.2 V 59.6 C 125.1,47.2 115,37.2 102.7,37.2 Z"
         id="path7289"
         inkscape:connector-curvature="0"
         style="fill:#33363a" /></g><g
       id="g7295"><path
         class="st3"
         d="m 47.4,82.7 c -0.7,0 -1.2,-0.5 -1.2,-1.2 V 69.6 c 0,-0.7 0.5,-1.2 1.2,-1.2 0.7,0 1.2,0.5 1.2,1.2 v 11.9 c 0,0.7 -0.5,1.2 -1.2,1.2 z"
         id="path7293"
         inkscape:connector-curvature="0"
         style="fill:#33363a" /></g><g
       id="g7299"><path
         class="st3"
         d="m 110.3,112.5 h -13 c -0.7,0 -1.2,-0.5 -1.2,-1.2 0,-0.7 0.5,-1.2 1.2,-1.2 h 13 c 0.7,0 1.2,0.5 1.2,1.2 0,0.7 -0.6,1.2 -1.2,1.2 z"
         id="path7297"
         inkscape:connector-curvature="0"
         style="fill:#33363a" /></g><g
       id="g7303"><path
         class="st3"
         d="m 90.4,112.5 h -2.3 c -0.7,0 -1.2,-0.5 -1.2,-1.2 0,-0.7 0.5,-1.2 1.2,-1.2 h 2.3 c 0.7,0 1.2,0.5 1.2,1.2 0,0.7 -0.5,1.2 -1.2,1.2 z"
         id="path7301"
         inkscape:connector-curvature="0"
         style="fill:#33363a" /></g><g
       id="g7307"><path
         class="st3"
         d="m 82.5,112.5 h -2.3 c -0.7,0 -1.2,-0.5 -1.2,-1.2 0,-0.7 0.5,-1.2 1.2,-1.2 h 2.3 c 0.7,0 1.2,0.5 1.2,1.2 0,0.7 -0.6,1.2 -1.2,1.2 z"
         id="path7305"
         inkscape:connector-curvature="0"
         style="fill:#33363a" /></g><g
       id="g7311"><path
         class="st3"
         d="m 74.5,112.5 h -2.3 c -0.7,0 -1.2,-0.5 -1.2,-1.2 0,-0.7 0.5,-1.2 1.2,-1.2 h 2.3 c 0.7,0 1.2,0.5 1.2,1.2 0,0.7 -0.5,1.2 -1.2,1.2 z"
         id="path7309"
         inkscape:connector-curvature="0"
         style="fill:#33363a" /></g><g
       id="g7315"><path
         class="st3"
         d="m 110.3,127.8 h -46 c -0.7,0 -1.2,-0.5 -1.2,-1.2 0,-0.7 0.5,-1.2 1.2,-1.2 h 46 c 0.7,0 1.2,0.5 1.2,1.2 0,0.7 -0.6,1.2 -1.2,1.2 z"
         id="path7313"
         inkscape:connector-curvature="0"
         style="fill:#33363a" /></g><g
       id="g7329"><g
         id="g7319"><path
           class="st4"
           d="m 104.3,69.3 c -0.3,-0.8 -0.9,-1.4 -1.8,-1.5 l -8.6,-1.2 -3.8,-7.8 c -0.4,-0.7 -1.1,-1.2 -2,-1.2 -0.8,0 -1.6,0.5 -2,1.2 l -3.8,7.8 -8.6,1.2 c -0.8,0.1 -1.5,0.7 -1.8,1.5 -0.3,0.8 0,1.7 0.6,2.3 l 6.2,6 -1.5,8.5 c -0.1,0.8 0.2,1.7 0.9,2.1 0.7,0.5 1.6,0.6 2.3,0.2 l 7.7,-4 7.7,4 c 0.3,0.2 0.7,0.3 1,0.3 0.5,0 0.9,-0.1 1.3,-0.4 0.7,-0.5 1,-1.3 0.9,-2.1 l -1.5,-8.5 6.2,-6 c 0.6,-0.8 0.8,-1.6 0.6,-2.4 z"
           id="path7317"
           inkscape:connector-curvature="0"
           style="fill:#ffd00b" /></g><g
         id="g7323"><path
           class="st5"
           d="m 97.5,77.5 5,-4.9 c 0,0 0,0 0,0 l -8.6,-1.2 -3.8,-7.8 c -0.4,-0.7 -1.1,-1.2 -2,-1.2 -0.8,0 -1.6,0.5 -2,1.2 l -3.8,7.8 -8.6,1.2 c 0,0 0,0 0,0 l 5,4.9 -0.7,4.2 0.7,0.7 -0.9,5.4 c 0.1,0.1 0.2,0.2 0.3,0.3 0.7,0.5 1.6,0.6 2.3,0.2 l 7.7,-4 7.7,4 c 0.3,0.2 0.7,0.3 1,0.3 0.5,0 0.9,-0.1 1.3,-0.4 0.1,-0.1 0.2,-0.2 0.3,-0.3 l -0.9,-5.4 0.7,-0.7 z"
           id="path7321"
           inkscape:connector-curvature="0"
           style="fill:#ffbe08" /></g><g
         id="g7327"><path
           class="st3"
           d="m 79.5,89.8 c -0.7,0 -1.4,-0.2 -2,-0.6 -1.1,-0.8 -1.6,-2 -1.4,-3.3 L 77.5,78 71.8,72.4 c -0.9,-0.9 -1.3,-2.2 -0.9,-3.5 0.4,-1.2 1.5,-2.1 2.7,-2.3 l 7.9,-1.2 3.5,-7.2 c 0.6,-1.1 1.8,-1.9 3,-1.9 1.3,0 2.5,0.7 3,1.9 l 3.5,7.2 7.9,1.2 c 1.3,0.2 2.3,1.1 2.7,2.3 0.4,1.2 0.1,2.6 -0.9,3.5 l -5.4,5.6 1.4,7.9 c 0.2,1.3 -0.3,2.6 -1.3,3.3 -1,0.7 -2.5,0.8 -3.6,0.3 l -7.1,-3.7 -7.1,3.7 c -0.5,0.2 -1.1,0.3 -1.6,0.3 z m 8.6,-31.1 c -0.4,0 -0.7,0.2 -0.9,0.6 L 83.4,67 c -0.2,0.4 -0.5,0.6 -0.9,0.7 L 74,68.9 c -0.4,0.1 -0.7,0.3 -0.8,0.7 -0.1,0.4 0,0.8 0.3,1 l 6.2,6 c 0.3,0.3 0.4,0.7 0.3,1.1 l -1.5,8.5 c -0.1,0.4 0.1,0.8 0.4,1 0.3,0.2 0.7,0.2 1,0.1 l 7.7,-4 c 0.3,-0.2 0.8,-0.2 1.1,0 l 7.7,4 c 0.3,0.2 0.8,0.1 1.1,-0.1 0.3,-0.2 0.5,-0.6 0.4,-1 l -1.5,-8.5 c -0.1,-0.4 0.1,-0.8 0.3,-1.1 l 6.2,-6 c 0.3,-0.3 0.4,-0.7 0.3,-1 -0.1,-0.3 -0.4,-0.6 -0.8,-0.7 L 93.8,67.7 C 93.4,67.6 93.1,67.4 92.9,67 L 89,59.3 C 88.9,59 88.5,58.7 88.1,58.7 Z"
           id="path7325"
           inkscape:connector-curvature="0"
           style="fill:#33363a" /></g></g><g
       id="g7333"><path
         class="st3"
         d="m 46.6,84.1 c -0.3,0 -0.6,-0.1 -0.8,-0.4 -0.5,-0.5 -0.5,-1.2 0,-1.7 l 3,-3 c 0.5,-0.5 1.2,-0.5 1.7,0 0.5,0.5 0.5,1.2 0,1.7 l -3,3 c -0.3,0.3 -0.6,0.4 -0.9,0.4 z"
         id="path7331"
         inkscape:connector-curvature="0"
         style="fill:#33363a" /></g></g><path
     class="st6"
     d="m 30.978773,51.50943 c 2.104954,-0.24764 3.260614,-1.4033 3.508255,-3.50825 0.247641,2.10495 1.403303,3.26061 3.508255,3.50825 -2.104952,0.24765 -3.260614,1.40331 -3.508255,3.50826 -0.247641,-2.10495 -1.403301,-3.26061 -3.508255,-3.50826 z m 40.819576,-1.85731 c -0.247641,2.10496 -1.403302,3.26062 -3.508254,3.50826 2.104952,0.24764 3.260613,1.4033 3.508254,3.50825 0.247642,-2.10495 1.403302,-3.26061 3.508255,-3.50825 -2.104953,-0.24764 -3.301887,-1.4033 -3.508255,-3.50826 z M 48.024764,6.97524 c -0.247641,2.10495 -1.403301,3.26061 -3.508255,3.50825 2.104954,0.24764 3.260614,1.4033 3.508255,3.50826 0.247641,-2.10496 1.403302,-3.26062 3.508255,-3.50826 -2.146227,-0.24764 -3.301887,-1.4033 -3.508255,-3.50825 z"
     id="path7337"
     inkscape:connector-curvature="0"
     style="fill:#ffffff;stroke-width:0.41273585" /><path
     class="st7"
     d="m 66.886792,23.07193 c 3.797171,-0.41273 5.860849,-2.51768 6.314859,-6.31485 0.412736,3.75589 2.517689,5.86084 6.314858,6.31485 -3.797169,0.41274 -5.860849,2.51769 -6.314858,6.31486 -0.412736,-3.79717 -2.517688,-5.90212 -6.314859,-6.31486 z"
     id="path7339"
     inkscape:connector-curvature="0"
     style="fill:#fcf4df;stroke-width:0.41273585" /><path
     class="st8"
     d="m 75.141509,24.92925 c -0.495282,-0.74293 -1.03184,-1.44458 -1.692217,-2.06368 -0.701651,-0.70165 -1.362028,-1.27949 -2.063679,-1.77477 -1.073113,1.11439 -2.558962,1.81604 -4.498821,2.02241 3.797171,0.41273 5.860849,2.51769 6.314859,6.31486 0.206368,-1.98114 0.866745,-3.46699 1.939858,-4.49882 z"
     id="path7341"
     inkscape:connector-curvature="0"
     style="fill:#f9dddb;stroke-width:0.41273585" /></svg>