<?xml version="1.0" encoding="utf-8"?>
<!-- Generator: Adobe Illustrator 22.0.1, SVG Export Plug-In . SVG Version: 6.00 Build 0)  -->
<svg version="1.1" id="Layer_1" xmlns="http://www.w3.org/2000/svg" xmlns:xlink="http://www.w3.org/1999/xlink" x="0px" y="0px"
	 viewBox="0 0 170 170" style="enable-background:new 0 0 170 170;" xml:space="preserve">
<style type="text/css">
	.st0{fill:#EFC75E;}
	.st1{fill:#FF1A1A;}
	.st2{fill:#D60909;}
	.st3{fill:#33363A;}
	.st4{fill:#FFD00B;}
	.st5{fill:#FFBE08;}
	.st6{fill:#FFFFFF;}
	.st7{fill:#FCF4DF;}
	.st8{fill:#F9DDDB;}
</style>
<path class="st0" d="M85,0.3c46.8,0,84.8,37.9,84.8,84.8s-37.9,84.8-84.8,84.8c-46.8,0-84.8-37.9-84.8-84.8S38.2,0.3,85,0.3z"/>
<g>
	<g>
		<path class="st1" d="M102.5,36H71c-13,0-23.6,10.6-23.6,23.6v11.9l-5.1,5.1c-4.7,4.7-4.7,12.4,0,17.1L53,104.4
			c0.1,0.1,0.2,0.2,0.3,0.2c3,3.5,7,6,11.6,7.3c-0.3,0.6-0.5,1.2-0.5,1.9v17.4c0,2.1,1.7,3.8,3.8,3.8h39.3c2.1,0,3.8-1.7,3.8-3.8
			v-17.4c0-0.9-0.3-1.8-0.9-2.4c9.2-3.2,15.9-12,15.9-22.3V59.6C126.2,46.5,115.6,36,102.5,36z"/>
	</g>
	<g>
		<path class="st2" d="M102.5,45.3H71c-13,0-23.6,10.6-23.6,23.6v2.6v9.3l-5.1,5.1c-1.2,1.2-2,2.5-2.6,3.9c0.6,1.4,1.5,2.7,2.6,3.9
			L53,104.4c0.1,0.1,0.2,0.2,0.3,0.2c3,3.5,7,6,11.6,7.3c-0.3,0.6-0.5,1.2-0.5,1.9v7.2c0.2,0.1,0.4,0.1,0.5,0.2
			c-0.3,0.6-0.5,1.2-0.5,1.9v8.1c0,2.1,1.7,3.8,3.8,3.8h39.3c2.1,0,3.8-1.7,3.8-3.8v-8.1c0-0.9-0.3-1.8-0.9-2.4
			c0.3-0.1,0.6-0.2,0.9-0.4v-6.6c0-0.9-0.3-1.8-0.9-2.4c9.2-3.2,15.9-12,15.9-22.3V68.9C126.2,55.9,115.6,45.3,102.5,45.3z"/>
	</g>
	<g>
		<path class="st3" d="M107.4,136.3H68.1c-2.7,0-5-2.2-5-5v-17.4c0-0.4,0-0.8,0.1-1.2c-4.2-1.4-7.9-3.8-10.8-7.2l0,0
			c-0.1-0.1-0.1-0.1-0.2-0.2L41.5,94.6c-2.5-2.5-3.9-5.9-3.9-9.4c0-3.6,1.4-6.9,3.9-9.4l4.7-4.7V59.6c0-13.7,11.1-24.8,24.8-24.8
			h31.5c13.7,0,24.8,11.1,24.8,24.8v29.5c0,10.1-6.1,19.1-15.3,22.9c0.2,0.6,0.3,1.2,0.3,1.8v17.4
			C112.4,134,110.2,136.3,107.4,136.3z M71,37.2c-12.4,0-22.4,10.1-22.4,22.4v11.9c0,0.3-0.1,0.6-0.4,0.8l-5.1,5.1
			c-2.1,2.1-3.2,4.8-3.2,7.7c0,2.9,1.1,5.6,3.2,7.7l10.7,10.7c0,0,0.1,0.1,0.1,0.1c0.1,0,0.1,0.1,0.2,0.1c0,0,0.1,0.1,0.1,0.1
			c2.9,3.3,6.7,5.7,11,6.9c0.4,0.1,0.7,0.4,0.8,0.7s0.1,0.7-0.1,1.1c-0.2,0.4-0.4,0.9-0.4,1.3v17.4c0,1.4,1.2,2.6,2.6,2.6h39.3
			c1.4,0,2.6-1.2,2.6-2.6v-17.4c0-0.7-0.3-1.3-0.6-1.6c-0.3-0.3-0.3-0.7-0.2-1.1c0.1-0.4,0.4-0.7,0.8-0.8c9-3.1,15.1-11.6,15.1-21.2
			V59.6c0-12.4-10.1-22.4-22.4-22.4H71z"/>
	</g>
	<g>
		<path class="st3" d="M47.4,82.7c-0.7,0-1.2-0.5-1.2-1.2V69.6c0-0.7,0.5-1.2,1.2-1.2c0.7,0,1.2,0.5,1.2,1.2v11.9
			C48.6,82.2,48.1,82.7,47.4,82.7z"/>
	</g>
	<g>
		<path class="st3" d="M110.3,112.5h-13c-0.7,0-1.2-0.5-1.2-1.2s0.5-1.2,1.2-1.2h13c0.7,0,1.2,0.5,1.2,1.2S110.9,112.5,110.3,112.5z
			"/>
	</g>
	<g>
		<path class="st3" d="M90.4,112.5h-2.3c-0.7,0-1.2-0.5-1.2-1.2s0.5-1.2,1.2-1.2h2.3c0.7,0,1.2,0.5,1.2,1.2S91.1,112.5,90.4,112.5z"
			/>
	</g>
	<g>
		<path class="st3" d="M82.5,112.5h-2.3c-0.7,0-1.2-0.5-1.2-1.2s0.5-1.2,1.2-1.2h2.3c0.7,0,1.2,0.5,1.2,1.2S83.1,112.5,82.5,112.5z"
			/>
	</g>
	<g>
		<path class="st3" d="M74.5,112.5h-2.3c-0.7,0-1.2-0.5-1.2-1.2s0.5-1.2,1.2-1.2h2.3c0.7,0,1.2,0.5,1.2,1.2S75.2,112.5,74.5,112.5z"
			/>
	</g>
	<g>
		<path class="st3" d="M110.3,127.8h-46c-0.7,0-1.2-0.5-1.2-1.2s0.5-1.2,1.2-1.2h46c0.7,0,1.2,0.5,1.2,1.2S110.9,127.8,110.3,127.8z
			"/>
	</g>
	<g>
		<g>
			<path class="st4" d="M104.3,69.3c-0.3-0.8-0.9-1.4-1.8-1.5l-8.6-1.2l-3.8-7.8c-0.4-0.7-1.1-1.2-2-1.2c-0.8,0-1.6,0.5-2,1.2
				l-3.8,7.8l-8.6,1.2c-0.8,0.1-1.5,0.7-1.8,1.5c-0.3,0.8,0,1.7,0.6,2.3l6.2,6l-1.5,8.5c-0.1,0.8,0.2,1.7,0.9,2.1
				c0.7,0.5,1.6,0.6,2.3,0.2l7.7-4l7.7,4c0.3,0.2,0.7,0.3,1,0.3c0.5,0,0.9-0.1,1.3-0.4c0.7-0.5,1-1.3,0.9-2.1l-1.5-8.5l6.2-6
				C104.3,70.9,104.5,70.1,104.3,69.3z"/>
		</g>
		<g>
			<path class="st5" d="M97.5,77.5l5-4.9c0,0,0,0,0,0l-8.6-1.2l-3.8-7.8c-0.4-0.7-1.1-1.2-2-1.2c-0.8,0-1.6,0.5-2,1.2l-3.8,7.8
				l-8.6,1.2c0,0,0,0,0,0l5,4.9l-0.7,4.2l0.7,0.7l-0.9,5.4c0.1,0.1,0.2,0.2,0.3,0.3c0.7,0.5,1.6,0.6,2.3,0.2l7.7-4l7.7,4
				c0.3,0.2,0.7,0.3,1,0.3c0.5,0,0.9-0.1,1.3-0.4c0.1-0.1,0.2-0.2,0.3-0.3l-0.9-5.4l0.7-0.7L97.5,77.5z"/>
		</g>
		<g>
			<path class="st3" d="M79.5,89.8c-0.7,0-1.4-0.2-2-0.6c-1.1-0.8-1.6-2-1.4-3.3l1.4-7.9l-5.7-5.6c-0.9-0.9-1.3-2.2-0.9-3.5
				c0.4-1.2,1.5-2.1,2.7-2.3l7.9-1.2l3.5-7.2c0.6-1.1,1.8-1.9,3-1.9c1.3,0,2.5,0.7,3,1.9l3.5,7.2l7.9,1.2c1.3,0.2,2.3,1.1,2.7,2.3
				c0.4,1.2,0.1,2.6-0.9,3.5L98.8,78l1.4,7.9c0.2,1.3-0.3,2.6-1.3,3.3c-1,0.7-2.5,0.8-3.6,0.3l-7.1-3.7l-7.1,3.7
				C80.6,89.7,80,89.8,79.5,89.8z M88.1,58.7c-0.4,0-0.7,0.2-0.9,0.6L83.4,67c-0.2,0.4-0.5,0.6-0.9,0.7L74,68.9
				c-0.4,0.1-0.7,0.3-0.8,0.7c-0.1,0.4,0,0.8,0.3,1l6.2,6c0.3,0.3,0.4,0.7,0.3,1.1l-1.5,8.5c-0.1,0.4,0.1,0.8,0.4,1
				c0.3,0.2,0.7,0.2,1,0.1l7.7-4c0.3-0.2,0.8-0.2,1.1,0l7.7,4c0.3,0.2,0.8,0.1,1.1-0.1c0.3-0.2,0.5-0.6,0.4-1l-1.5-8.5
				c-0.1-0.4,0.1-0.8,0.3-1.1l6.2-6c0.3-0.3,0.4-0.7,0.3-1s-0.4-0.6-0.8-0.7l-8.6-1.2c-0.4-0.1-0.7-0.3-0.9-0.7L89,59.3
				C88.9,59,88.5,58.7,88.1,58.7z"/>
		</g>
	</g>
	<g>
		<path class="st3" d="M46.6,84.1c-0.3,0-0.6-0.1-0.8-0.4c-0.5-0.5-0.5-1.2,0-1.7l3-3c0.5-0.5,1.2-0.5,1.7,0c0.5,0.5,0.5,1.2,0,1.7
			l-3,3C47.2,84,46.9,84.1,46.6,84.1z"/>
	</g>
</g>
<path class="st6" d="M26.8,125.1c5.1-0.6,7.9-3.4,8.5-8.5c0.6,5.1,3.4,7.9,8.5,8.5c-5.1,0.6-7.9,3.4-8.5,8.5
	C34.7,128.5,31.9,125.7,26.8,125.1z M125.7,120.6c-0.6,5.1-3.4,7.9-8.5,8.5c5.1,0.6,7.9,3.4,8.5,8.5c0.6-5.1,3.4-7.9,8.5-8.5
	C129.1,128.5,126.2,125.7,125.7,120.6z M68.1,17.2c-0.6,5.1-3.4,7.9-8.5,8.5c5.1,0.6,7.9,3.4,8.5,8.5c0.6-5.1,3.4-7.9,8.5-8.5
	C71.4,25.1,68.6,22.3,68.1,17.2z"/>
<path class="st7" d="M113.8,56.2c9.2-1,14.2-6.1,15.3-15.3c1,9.1,6.1,14.2,15.3,15.3c-9.2,1-14.2,6.1-15.3,15.3
	C128.1,62.3,123,57.2,113.8,56.2z"/>
<path class="st8" d="M133.8,60.7c-1.2-1.8-2.5-3.5-4.1-5c-1.7-1.7-3.3-3.1-5-4.3c-2.6,2.7-6.2,4.4-10.9,4.9
	c9.2,1,14.2,6.1,15.3,15.3C129.6,66.8,131.2,63.2,133.8,60.7z"/>
</svg>
